<mxfile host="app.diagrams.net" agent="Mozilla/5.0 (X11; Ubuntu; Linux x86_64; rv:143.0) Gecko/20100101 Firefox/143.0" version="28.2.5">
  <diagram name="Seite-1" id="tv3RCUC1lsHie5otSo7a">
    <mxGraphModel dx="1678" dy="972" grid="1" gridSize="10" guides="1" tooltips="1" connect="1" arrows="1" fold="1" page="1" pageScale="1" pageWidth="1169" pageHeight="827" math="0" shadow="0">
      <root>
        <mxCell id="0" />
        <mxCell id="1" parent="0" />
        <mxCell id="zjGeTOThquZhaolVEsW3-1" value="" style="html=1;dropTarget=0;whiteSpace=wrap;" vertex="1" parent="1">
          <mxGeometry x="80" y="210" width="320" height="400" as="geometry" />
        </mxCell>
        <mxCell id="zjGeTOThquZhaolVEsW3-2" value="" style="shape=module;jettyWidth=8;jettyHeight=4;" vertex="1" parent="zjGeTOThquZhaolVEsW3-1">
          <mxGeometry x="1" width="20" height="20" relative="1" as="geometry">
            <mxPoint x="-27" y="7" as="offset" />
          </mxGeometry>
        </mxCell>
        <mxCell id="zjGeTOThquZhaolVEsW3-3" value="" style="html=1;dropTarget=0;whiteSpace=wrap;" vertex="1" parent="1">
          <mxGeometry x="770" y="270" width="300" height="360" as="geometry" />
        </mxCell>
        <mxCell id="zjGeTOThquZhaolVEsW3-4" value="" style="shape=module;jettyWidth=8;jettyHeight=4;" vertex="1" parent="zjGeTOThquZhaolVEsW3-3">
          <mxGeometry x="1" width="20" height="20" relative="1" as="geometry">
            <mxPoint x="-27" y="7" as="offset" />
          </mxGeometry>
        </mxCell>
        <mxCell id="zjGeTOThquZhaolVEsW3-5" value="«component»&lt;br&gt;&lt;b&gt;Domain&lt;/b&gt;" style="html=1;dropTarget=0;whiteSpace=wrap;" vertex="1" parent="1">
          <mxGeometry x="500" y="440" width="150" height="60" as="geometry" />
        </mxCell>
        <mxCell id="zjGeTOThquZhaolVEsW3-6" value="" style="shape=module;jettyWidth=8;jettyHeight=4;" vertex="1" parent="zjGeTOThquZhaolVEsW3-5">
          <mxGeometry x="1" width="20" height="20" relative="1" as="geometry">
            <mxPoint x="-27" y="7" as="offset" />
          </mxGeometry>
        </mxCell>
        <mxCell id="zjGeTOThquZhaolVEsW3-7" value="" style="html=1;verticalAlign=bottom;labelBackgroundColor=none;endArrow=oval;endFill=0;endSize=8;rounded=0;" edge="1" parent="1" source="zjGeTOThquZhaolVEsW3-5">
          <mxGeometry width="160" relative="1" as="geometry">
            <mxPoint x="680" y="484.75" as="sourcePoint" />
            <mxPoint x="705" y="406" as="targetPoint" />
          </mxGeometry>
        </mxCell>
        <mxCell id="zjGeTOThquZhaolVEsW3-8" value="" style="html=1;verticalAlign=bottom;labelBackgroundColor=none;endArrow=oval;endFill=0;endSize=8;rounded=0;" edge="1" parent="1" source="zjGeTOThquZhaolVEsW3-5">
          <mxGeometry width="160" relative="1" as="geometry">
            <mxPoint x="500" y="484.75" as="sourcePoint" />
            <mxPoint x="455" y="470" as="targetPoint" />
          </mxGeometry>
        </mxCell>
        <mxCell id="zjGeTOThquZhaolVEsW3-9" value="Domain-Services" style="text;html=1;align=center;verticalAlign=middle;whiteSpace=wrap;rounded=0;fontSize=7;" vertex="1" parent="1">
          <mxGeometry x="430" y="476" width="60" height="24" as="geometry" />
        </mxCell>
        <mxCell id="zjGeTOThquZhaolVEsW3-10" value="&lt;div&gt;«component»&lt;/div&gt;&lt;div&gt;&lt;b&gt;Database&lt;/b&gt;&lt;/div&gt;" style="html=1;dropTarget=0;whiteSpace=wrap;" vertex="1" parent="1">
          <mxGeometry x="910" y="540.5" width="140" height="60" as="geometry" />
        </mxCell>
        <mxCell id="zjGeTOThquZhaolVEsW3-11" value="" style="shape=module;jettyWidth=8;jettyHeight=4;" vertex="1" parent="zjGeTOThquZhaolVEsW3-10">
          <mxGeometry x="1" width="20" height="20" relative="1" as="geometry">
            <mxPoint x="-27" y="7" as="offset" />
          </mxGeometry>
        </mxCell>
        <mxCell id="zjGeTOThquZhaolVEsW3-12" value="" style="rounded=0;orthogonalLoop=1;jettySize=auto;html=1;endArrow=halfCircle;endFill=0;endSize=6;strokeWidth=1;sketch=0;fontSize=12;curved=1;" edge="1" parent="1" source="zjGeTOThquZhaolVEsW3-10">
          <mxGeometry relative="1" as="geometry">
            <mxPoint x="880" y="520" as="sourcePoint" />
            <mxPoint x="880" y="570" as="targetPoint" />
          </mxGeometry>
        </mxCell>
        <mxCell id="zjGeTOThquZhaolVEsW3-13" value="«component»&lt;br&gt;&lt;div&gt;&lt;b&gt;I/O&lt;/b&gt;&lt;/div&gt;" style="html=1;dropTarget=0;whiteSpace=wrap;" vertex="1" parent="1">
          <mxGeometry x="910" y="340.5" width="140" height="60" as="geometry" />
        </mxCell>
        <mxCell id="zjGeTOThquZhaolVEsW3-14" value="" style="shape=module;jettyWidth=8;jettyHeight=4;" vertex="1" parent="zjGeTOThquZhaolVEsW3-13">
          <mxGeometry x="1" width="20" height="20" relative="1" as="geometry">
            <mxPoint x="-27" y="7" as="offset" />
          </mxGeometry>
        </mxCell>
        <mxCell id="zjGeTOThquZhaolVEsW3-15" value="" style="rounded=0;orthogonalLoop=1;jettySize=auto;html=1;endArrow=halfCircle;endFill=0;endSize=6;strokeWidth=1;sketch=0;fontSize=12;curved=1;" edge="1" parent="1" source="zjGeTOThquZhaolVEsW3-13">
          <mxGeometry relative="1" as="geometry">
            <mxPoint x="870" y="510" as="sourcePoint" />
            <mxPoint x="880" y="370" as="targetPoint" />
          </mxGeometry>
        </mxCell>
        <mxCell id="zjGeTOThquZhaolVEsW3-16" value="«component»&lt;br&gt;&lt;b&gt;Messaging&amp;nbsp;&lt;/b&gt;" style="html=1;dropTarget=0;whiteSpace=wrap;" vertex="1" parent="1">
          <mxGeometry x="910" y="440.5" width="140" height="60" as="geometry" />
        </mxCell>
        <mxCell id="zjGeTOThquZhaolVEsW3-17" value="" style="shape=module;jettyWidth=8;jettyHeight=4;" vertex="1" parent="zjGeTOThquZhaolVEsW3-16">
          <mxGeometry x="1" width="20" height="20" relative="1" as="geometry">
            <mxPoint x="-27" y="7" as="offset" />
          </mxGeometry>
        </mxCell>
        <mxCell id="zjGeTOThquZhaolVEsW3-18" value="" style="rounded=0;orthogonalLoop=1;jettySize=auto;html=1;endArrow=halfCircle;endFill=0;endSize=6;strokeWidth=1;sketch=0;fontSize=12;curved=1;" edge="1" parent="1" source="zjGeTOThquZhaolVEsW3-16">
          <mxGeometry relative="1" as="geometry">
            <mxPoint x="898" y="410" as="sourcePoint" />
            <mxPoint x="880" y="470" as="targetPoint" />
          </mxGeometry>
        </mxCell>
        <mxCell id="zjGeTOThquZhaolVEsW3-19" value="" style="html=1;rounded=0;" vertex="1" parent="1">
          <mxGeometry x="760" y="459" width="20" height="21" as="geometry" />
        </mxCell>
        <mxCell id="zjGeTOThquZhaolVEsW3-20" value="«delegate»" style="rounded=0;orthogonalLoop=1;jettySize=auto;html=1;dashed=1;dashPattern=8 8;spacingBottom=22;" edge="1" parent="1" target="zjGeTOThquZhaolVEsW3-57">
          <mxGeometry relative="1" as="geometry">
            <mxPoint x="700" y="480" as="targetPoint" />
            <mxPoint x="880" y="370" as="sourcePoint" />
          </mxGeometry>
        </mxCell>
        <mxCell id="zjGeTOThquZhaolVEsW3-21" value="«delegate»" style="rounded=0;orthogonalLoop=1;jettySize=auto;html=1;dashed=1;dashPattern=8 8;spacingBottom=22;" edge="1" parent="1" target="zjGeTOThquZhaolVEsW3-19">
          <mxGeometry relative="1" as="geometry">
            <mxPoint x="785" y="470" as="targetPoint" />
            <mxPoint x="880" y="470" as="sourcePoint" />
          </mxGeometry>
        </mxCell>
        <mxCell id="zjGeTOThquZhaolVEsW3-22" value="«delegate»" style="rounded=0;orthogonalLoop=1;jettySize=auto;html=1;dashed=1;dashPattern=8 8;spacingBottom=22;" edge="1" parent="1" target="zjGeTOThquZhaolVEsW3-56">
          <mxGeometry relative="1" as="geometry">
            <mxPoint x="790" y="480" as="targetPoint" />
            <mxPoint x="880" y="570" as="sourcePoint" />
          </mxGeometry>
        </mxCell>
        <mxCell id="zjGeTOThquZhaolVEsW3-23" value="«component»&lt;br&gt;&lt;b&gt;Infrastructure Layer&lt;/b&gt;" style="text;html=1;align=center;verticalAlign=middle;whiteSpace=wrap;rounded=0;" vertex="1" parent="1">
          <mxGeometry x="770" y="270" width="140" height="50" as="geometry" />
        </mxCell>
        <mxCell id="zjGeTOThquZhaolVEsW3-24" value="&lt;div&gt;«component»&lt;b&gt;&lt;br&gt;&lt;/b&gt;&lt;/div&gt;&lt;div&gt;&lt;b&gt;Request Dispatching&lt;/b&gt;&lt;/div&gt;" style="html=1;dropTarget=0;whiteSpace=wrap;" vertex="1" parent="1">
          <mxGeometry x="220" y="260" width="140" height="90" as="geometry" />
        </mxCell>
        <mxCell id="zjGeTOThquZhaolVEsW3-25" value="" style="shape=module;jettyWidth=8;jettyHeight=4;" vertex="1" parent="zjGeTOThquZhaolVEsW3-24">
          <mxGeometry x="1" width="20" height="20" relative="1" as="geometry">
            <mxPoint x="-27" y="7" as="offset" />
          </mxGeometry>
        </mxCell>
        <mxCell id="zjGeTOThquZhaolVEsW3-26" value="&lt;div&gt;«component»&lt;b&gt;&lt;br&gt;&lt;/b&gt;&lt;/div&gt;&lt;div&gt;&lt;b&gt;Request Execution&lt;/b&gt;&lt;/div&gt;" style="html=1;dropTarget=0;whiteSpace=wrap;" vertex="1" parent="1">
          <mxGeometry x="140" y="410" width="140" height="60" as="geometry" />
        </mxCell>
        <mxCell id="zjGeTOThquZhaolVEsW3-27" value="" style="shape=module;jettyWidth=8;jettyHeight=4;" vertex="1" parent="zjGeTOThquZhaolVEsW3-26">
          <mxGeometry x="1" width="20" height="20" relative="1" as="geometry">
            <mxPoint x="-27" y="7" as="offset" />
          </mxGeometry>
        </mxCell>
        <mxCell id="zjGeTOThquZhaolVEsW3-28" value="" style="edgeStyle=orthogonalEdgeStyle;rounded=0;orthogonalLoop=1;jettySize=auto;html=1;dashed=1;dashPattern=8 8;spacingBottom=22;" edge="1" parent="1" source="zjGeTOThquZhaolVEsW3-29">
          <mxGeometry relative="1" as="geometry">
            <mxPoint x="455" y="470" as="targetPoint" />
          </mxGeometry>
        </mxCell>
        <mxCell id="zjGeTOThquZhaolVEsW3-29" value="" style="html=1;rounded=0;" vertex="1" parent="1">
          <mxGeometry x="390" y="459.5" width="20" height="21" as="geometry" />
        </mxCell>
        <mxCell id="zjGeTOThquZhaolVEsW3-30" value="" style="rounded=0;orthogonalLoop=1;jettySize=auto;html=1;endArrow=halfCircle;endFill=0;endSize=6;strokeWidth=1;sketch=0;fontSize=12;curved=1;" edge="1" parent="1" source="zjGeTOThquZhaolVEsW3-26">
          <mxGeometry relative="1" as="geometry">
            <mxPoint x="340" y="475.52" as="sourcePoint" />
            <mxPoint x="310" y="440" as="targetPoint" />
          </mxGeometry>
        </mxCell>
        <mxCell id="zjGeTOThquZhaolVEsW3-31" value="«delegate»" style="rounded=0;orthogonalLoop=1;jettySize=auto;html=1;dashed=1;dashPattern=8 8;spacingBottom=22;" edge="1" parent="1" target="zjGeTOThquZhaolVEsW3-29">
          <mxGeometry relative="1" as="geometry">
            <mxPoint x="370" y="490" as="targetPoint" />
            <mxPoint x="310" y="440" as="sourcePoint" />
          </mxGeometry>
        </mxCell>
        <mxCell id="zjGeTOThquZhaolVEsW3-32" value="" style="html=1;verticalAlign=bottom;labelBackgroundColor=none;endArrow=oval;endFill=0;endSize=8;rounded=0;" edge="1" parent="1" source="zjGeTOThquZhaolVEsW3-26">
          <mxGeometry width="160" relative="1" as="geometry">
            <mxPoint x="300" y="380" as="sourcePoint" />
            <mxPoint x="210" y="380" as="targetPoint" />
          </mxGeometry>
        </mxCell>
        <mxCell id="zjGeTOThquZhaolVEsW3-33" value="" style="rounded=0;orthogonalLoop=1;jettySize=auto;html=1;endArrow=halfCircle;endFill=0;endSize=6;strokeWidth=1;sketch=0;fontSize=12;curved=1;" edge="1" parent="1" source="zjGeTOThquZhaolVEsW3-24">
          <mxGeometry relative="1" as="geometry">
            <mxPoint x="290" y="430" as="sourcePoint" />
            <mxPoint x="210" y="380" as="targetPoint" />
          </mxGeometry>
        </mxCell>
        <mxCell id="zjGeTOThquZhaolVEsW3-34" value="Request-Execution" style="text;html=1;align=center;verticalAlign=middle;whiteSpace=wrap;rounded=0;fontSize=7;" vertex="1" parent="1">
          <mxGeometry x="220" y="370" width="65" height="24" as="geometry" />
        </mxCell>
        <mxCell id="zjGeTOThquZhaolVEsW3-35" value="&lt;div&gt;«component»&lt;b&gt;&lt;br&gt;&lt;/b&gt;&lt;/div&gt;&lt;div&gt;&lt;b&gt;Authorization&lt;/b&gt;&lt;/div&gt;" style="html=1;dropTarget=0;whiteSpace=wrap;" vertex="1" parent="1">
          <mxGeometry x="140" y="520.5" width="140" height="60" as="geometry" />
        </mxCell>
        <mxCell id="zjGeTOThquZhaolVEsW3-36" value="" style="shape=module;jettyWidth=8;jettyHeight=4;" vertex="1" parent="zjGeTOThquZhaolVEsW3-35">
          <mxGeometry x="1" width="20" height="20" relative="1" as="geometry">
            <mxPoint x="-27" y="7" as="offset" />
          </mxGeometry>
        </mxCell>
        <mxCell id="zjGeTOThquZhaolVEsW3-37" value="" style="rounded=0;orthogonalLoop=1;jettySize=auto;html=1;endArrow=halfCircle;endFill=0;endSize=6;strokeWidth=1;sketch=0;fontSize=12;curved=1;" edge="1" parent="1">
          <mxGeometry relative="1" as="geometry">
            <mxPoint x="280" y="550.26" as="sourcePoint" />
            <mxPoint x="310" y="550.26" as="targetPoint" />
          </mxGeometry>
        </mxCell>
        <mxCell id="zjGeTOThquZhaolVEsW3-38" value="«delegate»" style="rounded=0;orthogonalLoop=1;jettySize=auto;html=1;dashed=1;dashPattern=8 8;spacingBottom=22;" edge="1" parent="1" target="zjGeTOThquZhaolVEsW3-29">
          <mxGeometry relative="1" as="geometry">
            <mxPoint x="400" y="474" as="targetPoint" />
            <mxPoint x="310" y="550" as="sourcePoint" />
          </mxGeometry>
        </mxCell>
        <mxCell id="zjGeTOThquZhaolVEsW3-39" value="" style="html=1;verticalAlign=bottom;labelBackgroundColor=none;endArrow=oval;endFill=0;endSize=8;rounded=0;" edge="1" parent="1" source="zjGeTOThquZhaolVEsW3-35">
          <mxGeometry width="160" relative="1" as="geometry">
            <mxPoint x="260" y="491" as="sourcePoint" />
            <mxPoint x="210" y="500" as="targetPoint" />
          </mxGeometry>
        </mxCell>
        <mxCell id="zjGeTOThquZhaolVEsW3-40" value="" style="rounded=0;orthogonalLoop=1;jettySize=auto;html=1;endArrow=halfCircle;endFill=0;endSize=6;strokeWidth=1;sketch=0;fontSize=12;curved=1;" edge="1" parent="1" source="zjGeTOThquZhaolVEsW3-26">
          <mxGeometry relative="1" as="geometry">
            <mxPoint x="220" y="350" as="sourcePoint" />
            <mxPoint x="210" y="500" as="targetPoint" />
          </mxGeometry>
        </mxCell>
        <mxCell id="zjGeTOThquZhaolVEsW3-41" value="Authorization" style="text;html=1;align=center;verticalAlign=middle;whiteSpace=wrap;rounded=0;fontSize=7;" vertex="1" parent="1">
          <mxGeometry x="220" y="484" width="50" height="24" as="geometry" />
        </mxCell>
        <mxCell id="zjGeTOThquZhaolVEsW3-42" value="«component»&lt;br&gt;&lt;b&gt;Interface Layer&lt;/b&gt;" style="text;html=1;align=center;verticalAlign=middle;whiteSpace=wrap;rounded=0;" vertex="1" parent="1">
          <mxGeometry x="80" y="210" width="140" height="50" as="geometry" />
        </mxCell>
        <mxCell id="zjGeTOThquZhaolVEsW3-43" value="" style="html=1;rounded=0;" vertex="1" parent="1">
          <mxGeometry x="70" y="279.5" width="20" height="21" as="geometry" />
        </mxCell>
        <mxCell id="zjGeTOThquZhaolVEsW3-44" value="" style="html=1;verticalAlign=bottom;labelBackgroundColor=none;endArrow=oval;endFill=0;endSize=8;rounded=0;exitX=0.005;exitY=0.33;exitDx=0;exitDy=0;exitPerimeter=0;" edge="1" parent="1" source="zjGeTOThquZhaolVEsW3-24">
          <mxGeometry width="160" relative="1" as="geometry">
            <mxPoint x="210" y="289.83000000000004" as="sourcePoint" />
            <mxPoint x="195" y="289.83000000000004" as="targetPoint" />
          </mxGeometry>
        </mxCell>
        <mxCell id="zjGeTOThquZhaolVEsW3-45" value="«delegate»" style="rounded=0;orthogonalLoop=1;jettySize=auto;html=1;dashed=1;dashPattern=8 8;spacingBottom=22;" edge="1" parent="1" source="zjGeTOThquZhaolVEsW3-43">
          <mxGeometry relative="1" as="geometry">
            <mxPoint x="195" y="290" as="targetPoint" />
            <mxPoint x="320" y="430" as="sourcePoint" />
          </mxGeometry>
        </mxCell>
        <mxCell id="zjGeTOThquZhaolVEsW3-46" value="REST-API" style="text;html=1;align=center;verticalAlign=middle;whiteSpace=wrap;rounded=0;fontSize=7;" vertex="1" parent="1">
          <mxGeometry x="175" y="260" width="40" height="20" as="geometry" />
        </mxCell>
        <mxCell id="zjGeTOThquZhaolVEsW3-47" value="" style="html=1;verticalAlign=bottom;labelBackgroundColor=none;endArrow=oval;endFill=0;endSize=8;rounded=0;exitX=0.002;exitY=0.67;exitDx=0;exitDy=0;exitPerimeter=0;" edge="1" parent="1" source="zjGeTOThquZhaolVEsW3-24">
          <mxGeometry width="160" relative="1" as="geometry">
            <mxPoint x="210" y="320" as="sourcePoint" />
            <mxPoint x="195" y="320" as="targetPoint" />
          </mxGeometry>
        </mxCell>
        <mxCell id="zjGeTOThquZhaolVEsW3-48" value="«delegate»" style="rounded=0;orthogonalLoop=1;jettySize=auto;html=1;dashed=1;dashPattern=8 8;spacingBottom=22;" edge="1" parent="1">
          <mxGeometry relative="1" as="geometry">
            <mxPoint x="195" y="320" as="targetPoint" />
            <mxPoint x="90" y="320" as="sourcePoint" />
          </mxGeometry>
        </mxCell>
        <mxCell id="zjGeTOThquZhaolVEsW3-49" value="" style="html=1;rounded=0;" vertex="1" parent="1">
          <mxGeometry x="70" y="310" width="20" height="21" as="geometry" />
        </mxCell>
        <mxCell id="zjGeTOThquZhaolVEsW3-50" value="Content Interface" style="text;html=1;align=center;verticalAlign=middle;whiteSpace=wrap;rounded=0;fontSize=7;" vertex="1" parent="1">
          <mxGeometry x="135" y="330" width="40" height="20" as="geometry" />
        </mxCell>
        <mxCell id="zjGeTOThquZhaolVEsW3-51" value="I/O" style="text;html=1;align=center;verticalAlign=middle;whiteSpace=wrap;rounded=0;fontSize=8;" vertex="1" parent="1">
          <mxGeometry x="685" y="370" width="60" height="24" as="geometry" />
        </mxCell>
        <mxCell id="zjGeTOThquZhaolVEsW3-52" value="Messaging" style="text;html=1;align=center;verticalAlign=middle;whiteSpace=wrap;rounded=0;fontSize=8;" vertex="1" parent="1">
          <mxGeometry x="675" y="438" width="60" height="24" as="geometry" />
        </mxCell>
        <mxCell id="zjGeTOThquZhaolVEsW3-53" value="Database-Access" style="text;html=1;align=center;verticalAlign=middle;whiteSpace=wrap;rounded=0;fontSize=8;" vertex="1" parent="1">
          <mxGeometry x="680" y="492" width="65" height="24" as="geometry" />
        </mxCell>
        <mxCell id="zjGeTOThquZhaolVEsW3-54" value="" style="html=1;verticalAlign=bottom;labelBackgroundColor=none;endArrow=oval;endFill=0;endSize=8;rounded=0;" edge="1" parent="1" source="zjGeTOThquZhaolVEsW3-5">
          <mxGeometry width="160" relative="1" as="geometry">
            <mxPoint x="660" y="480" as="sourcePoint" />
            <mxPoint x="705" y="470" as="targetPoint" />
          </mxGeometry>
        </mxCell>
        <mxCell id="zjGeTOThquZhaolVEsW3-55" value="" style="html=1;verticalAlign=bottom;labelBackgroundColor=none;endArrow=oval;endFill=0;endSize=8;rounded=0;" edge="1" parent="1" source="zjGeTOThquZhaolVEsW3-5">
          <mxGeometry width="160" relative="1" as="geometry">
            <mxPoint x="660" y="480" as="sourcePoint" />
            <mxPoint x="705" y="526" as="targetPoint" />
          </mxGeometry>
        </mxCell>
        <mxCell id="zjGeTOThquZhaolVEsW3-56" value="" style="html=1;rounded=0;" vertex="1" parent="1">
          <mxGeometry x="760" y="516" width="20" height="20" as="geometry" />
        </mxCell>
        <mxCell id="zjGeTOThquZhaolVEsW3-57" value="" style="html=1;rounded=0;" vertex="1" parent="1">
          <mxGeometry x="760" y="396" width="20" height="20" as="geometry" />
        </mxCell>
        <mxCell id="zjGeTOThquZhaolVEsW3-58" value="" style="rounded=0;orthogonalLoop=1;jettySize=auto;html=1;dashed=1;dashPattern=8 8;spacingBottom=22;" edge="1" parent="1" source="zjGeTOThquZhaolVEsW3-57">
          <mxGeometry relative="1" as="geometry">
            <mxPoint x="705" y="406" as="targetPoint" />
            <mxPoint x="890" y="380" as="sourcePoint" />
          </mxGeometry>
        </mxCell>
        <mxCell id="zjGeTOThquZhaolVEsW3-59" value="" style="rounded=0;orthogonalLoop=1;jettySize=auto;html=1;dashed=1;dashPattern=8 8;spacingBottom=22;" edge="1" parent="1" source="zjGeTOThquZhaolVEsW3-19">
          <mxGeometry relative="1" as="geometry">
            <mxPoint x="705" y="470" as="targetPoint" />
            <mxPoint x="890" y="380" as="sourcePoint" />
          </mxGeometry>
        </mxCell>
        <mxCell id="zjGeTOThquZhaolVEsW3-60" value="" style="rounded=0;orthogonalLoop=1;jettySize=auto;html=1;dashed=1;dashPattern=8 8;spacingBottom=22;" edge="1" parent="1" source="zjGeTOThquZhaolVEsW3-56">
          <mxGeometry relative="1" as="geometry">
            <mxPoint x="705" y="526" as="targetPoint" />
            <mxPoint x="890" y="380" as="sourcePoint" />
          </mxGeometry>
        </mxCell>
      </root>
    </mxGraphModel>
  </diagram>
</mxfile>
